ply
format ascii 1.0
comment generated by the Sequential OpenMVG Calibration Engine
element vertex 225
property float x
property float y
property float z
property uchar red
property uchar green
property uchar blue
property float confidence
property list uchar int visibility
element face 0
property list uchar int vertex_index
end_header
 10.0627 -4.59935  17.2334 255 255 255 3.14 2 0 1 
10.1946 -3.3383 19.5087 255 255 255 3.14 3 0 1 2 
 7.34535 -2.73184  19.9886 255 255 255 3.14 2 0 1 
 13.3167 -2.65097  17.1182 255 255 255 3.14 2 0 2 
 8.47615 -1.97375  19.8577 255 255 255 3.14 2 0 1 
 6.08876 -1.44836  20.5593 255 255 255 3.14 2 0 1 
 8.96901 -0.77653  17.0595 255 255 255 3.14 2 0 2 
  8.91317 -0.763476    16.651 255 255 255 3.14 2 0 2 
  8.79524 -0.513422   16.6834 255 255 255 3.14 4 0 1 4 6 
  8.73747 -0.350491   17.0222 255 255 255 3.14 2 0 2 
   8.74605 -0.0927995    17.1645 255 255 255 3.14 2 0 2 
   8.67158 -0.0944646    17.0545 255 255 255 3.14 4 0 1 4 6 
7.94358 1.18398 15.9342 255 255 255 3.14 2 1 2 
7.18287 3.84699 16.1715 255 255 255 3.14 5 0 1 2 4 6 
12.7552 5.45282 14.1089 255 255 255 3.14 2 0 4 
 10.2066 -4.71171  17.7714 255 255 255 3.14 2 0 1 
 10.0908 -4.57534  17.3851 255 255 255 3.14 3 0 1 2 
 10.1814 -4.53719  17.3565 255 255 255 3.14 2 0 1 
  8.8503 -3.37009  20.5658 255 255 255 3.14 2 0 1 
 5.71865 -3.26055    20.44 255 255 255 3.14 2 0 1 
 9.95883 -3.17979  20.2788 255 255 255 3.14 2 0 1 
 8.36814 -3.15298  20.2712 255 255 255 3.14 2 0 1 
 5.70328 -3.06479   20.332 255 255 255 3.14 2 0 1 
 8.22008 -2.46403  19.9667 255 255 255 3.14 2 0 1 
 7.10561 -2.17828  19.7878 255 255 255 3.14 2 0 1 
 7.05674 -2.11045  19.7146 255 255 255 3.14 2 0 1 
 13.4734 -2.39774  16.6566 255 255 255 3.14 2 1 2 
 9.27653 -1.45127  17.7827 255 255 255 3.14 2 0 2 
 9.28418 -1.60586  16.9493 255 255 255 3.14 2 0 2 
 9.24322 -1.36597  17.7192 255 255 255 3.14 2 0 2 
 9.22509 -1.38416  17.3792 255 255 255 3.14 2 0 2 
 9.18988 -1.25574  17.6582 255 255 255 3.14 2 0 2 
 14.1012 -1.13161  15.7278 255 255 255 3.14 2 1 2 
  8.81125 -0.556365   16.8968 255 255 255 3.14 5 0 1 2 4 6 
 8.76867 -0.47191  17.0635 255 255 255 3.14 2 0 2 
  8.78885 -0.487884   16.8762 255 255 255 3.14 5 0 1 2 4 6 
   8.6737 -0.293158   17.1357 255 255 255 3.14 2 0 2 
  8.75319 -0.414332   16.5919 255 255 255 3.14 5 0 1 2 4 6 
  8.62451 -0.222554   17.0837 255 255 255 3.14 2 0 2 
6.92939  2.7752 17.6385 255 255 255 3.14 4 0 1 2 4 
7.26813 3.34931 15.7732 255 255 255 3.14 5 0 1 2 4 6 
7.27474  3.5678 16.1271 255 255 255 3.14 5 0 1 2 4 6 
7.23173 3.53233 15.9238 255 255 255 3.14 5 0 1 2 4 6 
7.25973 3.69911 16.2588 255 255 255 3.14 4 0 1 4 6 
 10.0575 -4.38929  17.4736 255 255 255 3.14 3 0 1 2 
 10.3326 -3.60398  19.8923 255 255 255 3.14 3 0 1 2 
 8.76292 -3.33966  20.6014 255 255 255 3.14 3 0 1 2 
 8.18741 -2.33002   19.959 255 255 255 3.14 2 0 1 
 8.13062 -2.22212  19.8168 255 255 255 3.14 2 0 1 
 6.72345 -2.14846  19.7604 255 255 255 3.14 2 0 1 
9.82864 -2.2136 18.6877 255 255 255 3.14 2 0 1 
13.4194 -2.4975 16.7715 255 255 255 3.14 2 1 2 
 14.1927 -2.59754  15.6226 255 255 255 3.14 2 1 2 
 13.2774 -2.34415  16.6659 255 255 255 3.14 2 1 2 
 9.81571 -1.83563  18.5738 255 255 255 3.14 3 0 1 2 
 10.0769 -2.16079  16.2076 255 255 255 3.14 2 0 2 
  14.709 -1.49401  14.8572 255 255 255 3.14 2 1 2 
 9.22118 -1.22063  17.5624 255 255 255 3.14 2 0 2 
  9.04748 -0.383049   18.0623 255 255 255 3.14 2 0 2 
  8.71657 -0.266204   17.0627 255 255 255 3.14 4 0 1 2 6 
     8.71 -0.248182   16.9312 255 255 255 3.14 5 0 1 2 4 6 
 8.65691 -0.20169  16.8442 255 255 255 3.14 2 0 2 
 9.68351 0.329228  15.1564 255 255 255 3.14 2 1 2 
 8.19001 0.829037  16.0724 255 255 255 3.14 2 1 2 
12.8749 5.55676 13.8874 255 255 255 3.14 2 0 4 
6.52388 4.93747 14.5342 255 255 255 3.14 2 1 2 
6.54956 5.02056 14.6182 255 255 255 3.14 2 1 2 
 9.93719 -4.18136   17.365 255 255 255 3.14 2 0 1 
  9.1101 -3.18621  20.4841 255 255 255 3.14 2 0 1 
 9.86863 -3.32999  17.3838 255 255 255 3.14 2 0 1 
 6.70924 -2.16789  19.9107 255 255 255 3.14 2 0 1 
 11.7949 -2.52411  13.4686 255 255 255 3.14 2 1 3 
 9.28697 -1.42093  17.5109 255 255 255 3.14 2 0 2 
 11.4676 -1.63864  13.2041 255 255 255 3.14 2 1 3 
 14.3428 0.199266  14.1277 255 255 255 3.14 2 1 2 
 8.25817 0.856378  15.9802 255 255 255 3.14 2 1 2 
7.95631 1.22714 15.9676 255 255 255 3.14 2 1 2 
8.10403 1.23945 15.8098 255 255 255 3.14 2 1 2 
 7.05856 -3.42215  20.4331 255 255 255 3.14 2 0 1 
 9.94566 -3.10086  20.4015 255 255 255 3.14 2 0 1 
 9.62942 -2.99515  20.1085 255 255 255 3.14 3 0 1 2 
 8.31888 -1.78021   19.732 255 255 255 3.14 2 0 1 
  15.255 -1.84611   14.352 255 255 255 3.14 2 1 2 
 9.26764 -1.35743  17.6197 255 255 255 3.14 2 0 2 
 6.41307 0.358803   20.117 255 255 255 3.14 2 1 4 
   8.59657 -0.0492757     17.021 255 255 255 3.14 2 0 2 
 10.8421 0.185386  12.8428 255 255 255 3.14 2 1 3 
 7.7635 1.69664 15.9378 255 255 255 3.14 2 1 2 
 10.1279 -4.27244  17.9036 255 255 255 3.14 2 0 1 
 10.3166 -3.65399   19.713 255 255 255 3.14 3 0 1 2 
 14.1918 -2.65321  15.7886 255 255 255 3.14 2 1 2 
  10.9236 -0.705529   15.3964 255 255 255 3.14 2 1 2 
  8.75408 0.0431634   17.6931 255 255 255 3.14 2 0 2 
 8.08299 0.798637  16.3362 255 255 255 3.14 2 1 2 
6.41527  5.1095 14.5078 255 255 255 3.14 2 1 2 
 10.4196 -5.11125  17.6775 255 255 255 3.14 3 0 1 2 
10.3194 -4.7432 17.5423 255 255 255 3.14 3 0 1 2 
 14.2312 -2.46702  16.8974 255 255 255 3.14 5 0 1 4 5 6 
 14.6475 -2.22125  16.6824 255 255 255 3.14 4 0 1 4 5 
  8.8232 -1.01376  19.4615 255 255 255 3.14 2 0 1 
 14.0575 -1.00999  15.2893 255 255 255 3.14 2 1 2 
  14.4927 0.0322456   14.2414 255 255 255 3.14 2 1 2 
 13.1904 0.497396  14.5955 255 255 255 3.14 2 1 2 
11.0738 1.21886 14.8407 255 255 255 3.14 2 1 2 
11.3861 1.93888 14.4667 255 255 255 3.14 2 1 2 
5.73648 3.40885 18.1492 255 255 255 3.14 2 0 4 
5.35785 4.66893 17.7319 255 255 255 3.14 2 1 2 
 10.0352 -4.28654  17.2943 255 255 255 3.14 3 0 1 2 
 9.29673 -1.37846  17.9008 255 255 255 3.14 2 0 2 
 8.40231 0.889874  18.2074 255 255 255 3.14 2 0 2 
7.50156 2.33421 17.7638 255 255 255 3.14 2 1 2 
7.90317 2.06353 16.7238 255 255 255 3.14 2 1 2 
8.50178 1.93605 14.6032 255 255 255 3.14 2 1 2 
10.1345 2.55169 14.0545 255 255 255 3.14 2 1 2 
 6.8769 2.95896 17.6031 255 255 255 3.14 3 0 1 4 
 9.86223 -4.48989  17.5534 255 255 255 3.14 2 0 1 
 6.66879 -2.45479  19.9575 255 255 255 3.14 2 0 1 
  7.66291 -0.928201   20.1812 255 255 255 3.14 2 0 2 
 9.22419 -1.44466  17.0336 255 255 255 3.14 2 0 2 
7.78732  1.7133  18.123 255 255 255 3.14 2 1 2 
7.76427 1.29481 15.9931 255 255 255 3.14 2 1 2 
12.0599 1.90221 14.4121 255 255 255 3.14 2 1 2 
 8.0254 1.67729 16.6438 255 255 255 3.14 2 1 2 
 10.1569 -4.94039  17.6246 255 255 255 3.14 3 0 1 2 
 9.98589 -2.10053  18.4377 255 255 255 3.14 2 0 1 
 11.5552 0.469973  14.6988 255 255 255 3.14 2 1 2 
 8.31892 0.885356  17.2148 255 255 255 3.14 2 1 2 
  10.828 0.738937  14.8764 255 255 255 3.14 2 1 2 
 8.16072 0.443764  16.2795 255 255 255 3.14 2 1 2 
7.58197 1.34161 18.6511 255 255 255 3.14 2 0 2 
12.1398 1.32684  14.693 255 255 255 3.14 2 1 2 
7.44099 1.93072 15.8023 255 255 255 3.14 2 1 2 
10.0688 -1.6269 15.9101 255 255 255 3.14 2 0 2 
 7.11981 0.618201  4.61203 255 255 255 3.14 2 1 3 
 10.3225 -3.36489  18.3678 255 255 255 3.14 2 0 1 
 9.20318 -1.54722  16.9516 255 255 255 3.14 2 1 2 
  14.973 -1.95991   14.508 255 255 255 3.14 2 1 2 
  9.01697 -0.420125   17.9724 255 255 255 3.14 2 1 2 
8.87783 -0.8462 16.6091 255 255 255 3.14 2 1 2 
   13.7283 -0.0645062    15.5677 255 255 255 3.14 2 1 2 
12.9384 1.49014 13.9112 255 255 255 3.14 2 1 2 
7.33119 3.38547 16.0971 255 255 255 3.14 4 0 2 4 6 
7.18987 3.85555 16.2341 255 255 255 3.14 4 0 2 4 6 
 9.96385 -3.69289  20.0085 255 255 255 3.14 2 1 2 
 9.37021 -1.42112   17.734 255 255 255 3.14 2 1 2 
 9.39347 -1.44157  17.6594 255 255 255 3.14 2 1 2 
 9.21489 -1.20586  17.5752 255 255 255 3.14 2 0 2 
  9.03863 -0.779407   17.2753 255 255 255 3.14 2 0 2 
  8.98945 -0.767473   17.1859 255 255 255 3.14 2 1 2 
 8.85931 -0.64582  17.2133 255 255 255 3.14 2 1 2 
  8.89964 -0.822499   16.5096 255 255 255 3.14 2 1 2 
  9.02648 -0.640001   16.3718 255 255 255 3.14 2 1 2 
6.60921  5.4365 15.4908 255 255 255 3.14 2 1 2 
6.44612 5.21641 14.5074 255 255 255 3.14 2 1 2 
 10.0606 -4.47418  17.4116 255 255 255 3.14 2 1 2 
 10.1427 -3.36359  19.5632 255 255 255 3.14 2 1 2 
 10.1535 -3.26075  19.6204 255 255 255 3.14 2 0 2 
 13.4538 -2.58901  16.8541 255 255 255 3.14 2 1 2 
  13.596 -2.56614  16.5873 255 255 255 3.14 2 1 2 
 14.4145 -2.63715  15.5146 255 255 255 3.14 2 1 2 
  10.082 -2.12427  16.0864 255 255 255 3.14 2 1 2 
14.9772 -2.0214 14.3209 255 255 255 3.14 2 1 2 
  8.60036 -0.378653    16.517 255 255 255 3.14 2 1 2 
6.47282 5.13902  14.388 255 255 255 3.14 2 1 2 
 10.3439 -4.34337  17.8571 255 255 255 3.14 2 1 2 
  8.88279 -0.970268   19.3256 255 255 255 3.14 2 1 2 
9.09289 -1.0271 17.5571 255 255 255 3.14 2 1 2 
  14.709 -1.49401  14.8572 255 255 255 3.14 2 1 2 
  8.96799 -0.843097   16.9805 255 255 255 3.14 2 0 2 
  8.75465 -0.438273   17.2292 255 255 255 3.14 2 0 2 
7.81434 1.11754 18.4964 255 255 255 3.14 2 0 2 
 8.24609 0.201705  16.3157 255 255 255 3.14 2 1 2 
8.49973 0.89425 17.5461 255 255 255 3.14 2 1 2 
7.99644 1.32172 16.1611 255 255 255 3.14 2 1 2 
7.78007 1.83273 15.9388 255 255 255 3.14 2 1 2 
5.92016  4.9513 17.3655 255 255 255 3.14 2 1 2 
 9.32352 -3.09069  20.2932 255 255 255 3.14 2 1 2 
 14.4777 -1.39459  15.4882 255 255 255 3.14 2 1 2 
 10.1543 0.583259    15.03 255 255 255 3.14 2 1 2 
8.23862 1.31292 16.8795 255 255 255 3.14 2 1 2 
7.81552 2.47424 15.9654 255 255 255 3.14 2 1 2 
8.90495 2.30931 14.4277 255 255 255 3.14 2 1 2 
10.1231 -4.5414 17.4593 255 255 255 3.14 2 1 2 
 10.1053 -4.26607  17.8965 255 255 255 3.14 2 0 2 
 10.1077 -3.44928  19.5534 255 255 255 3.14 2 1 2 
13.5992 -2.5613 16.6781 255 255 255 3.14 2 1 2 
 9.44736 -1.95878  16.9012 255 255 255 3.14 2 1 2 
11.6165 1.50592 14.7003 255 255 255 3.14 2 1 2 
7.90288 1.92185 16.3484 255 255 255 3.14 2 1 2 
 14.7016 -2.15143  15.5388 255 255 255 3.14 2 1 2 
 8.07008 0.798122  16.3391 255 255 255 3.14 2 1 2 
  9.05513 -0.954786   19.5984 255 255 255 3.14 2 1 2 
9.55356 -3.3003 20.2855 255 255 255 3.14 2 1 2 
 9.40381 -1.50045  18.2504 255 255 255 3.14 2 0 2 
5.49068 4.83807 17.5456 255 255 255 3.14 2 1 2 
 10.1899 -4.33069  16.9026 255 255 255 3.14 2 0 2 
 14.6099 -2.02433  15.9784 255 255 255 3.14 2 1 2 
 13.7854 0.156295   15.083 255 255 255 3.14 2 1 2 
13.0055 1.95154 14.2294 255 255 255 3.14 2 1 2 
 9.91188 -2.57035  17.4406 255 255 255 3.14 2 1 2 
 9.22626 -1.14467  17.9395 255 255 255 3.14 2 0 2 
   8.7954 -0.173794   17.4698 255 255 255 3.14 2 0 2 
  8.87473 0.0351962   15.2736 255 255 255 3.14 2 1 2 
 7.2862 3.26648 15.6724 255 255 255 3.14 3 0 4 6 
  8.85628 -0.650713    16.898 255 255 255 3.14 2 0 4 
   8.7811 -0.469818     16.78 255 255 255 3.14 3 0 4 6 
  8.78162 -0.440816   16.7333 255 255 255 3.14 2 0 4 
4.56782 3.12143 18.6172 255 255 255 3.14 2 0 4 
 13.9343 -1.60308  16.4844 255 255 255 3.14 4 0 4 5 6 
 5.79657 -3.13516  20.4903 255 255 255 3.14 2 1 4 
6.23964 3.72071 17.8705 255 255 255 3.14 2 0 4 
7.17741 3.88786 16.3556 255 255 255 3.14 3 0 4 6 
8.16775 1.00176 16.3108 255 255 255 3.14 2 0 4 
 7.1822 3.72245 15.9564 255 255 255 3.14 3 0 4 6 
 11.6116 -2.31915  13.5439 255 255 255 3.14 2 1 3 
 10.7964 0.396487  14.8188 255 255 255 3.14 3 4 5 6 
7.29645 3.44464 16.0667 255 255 255 3.14 3 0 4 6 
  8.75435 -0.427551   16.8574 255 255 255 3.14 2 0 6 
 9.23413 -0.30696  14.9222 255 255 255 3.14 2 4 6 
6.75464 2.77509 17.6333 255 255 255 3.14 2 0 6 
  8.6218 0.841418  14.6722 255 255 255 3.14 2 4 6 
8.68865 2.03558 14.4384 255 255 255 3.14 2 4 6 
6.06422 3.47787 18.1348 255 255 255 3.14 2 0 6 
7.45094 2.01619 14.1067 255 255 255 3.14 2 4 6 
7.05842 3.77792 13.9146 255 255 255 3.14 2 4 6 
