<?xml version="1.0" standalone="yes"?>
<!-- SVG graphic -->
<svg xmlns='http://www.w3.org/2000/svg' xmlns:xlink='http://www.w3.org/1999/xlink'
width="215px" height="215px" preserveAspectRatio="xMinYMin meet" viewBox="0 0 215 215" version="1.1">
<rect x="10" y="0" width="2.5" height="2.5" fill="blue"/>
<rect x="15" y="0" width="2.5" height="2.5" fill="blue"/>
<rect x="20" y="0" width="2.5" height="2.5" fill="blue"/>
<rect x="25" y="0" width="2.5" height="2.5" fill="blue"/>
<rect x="35" y="0" width="2.5" height="2.5" fill="blue"/>
<rect x="40" y="0" width="2.5" height="2.5" fill="blue"/>
<rect x="50" y="0" width="2.5" height="2.5" fill="blue"/>
<rect x="60" y="0" width="2.5" height="2.5" fill="blue"/>
<rect x="65" y="0" width="2.5" height="2.5" fill="blue"/>
<rect x="75" y="0" width="2.5" height="2.5" fill="blue"/>
<rect x="85" y="0" width="2.5" height="2.5" fill="blue"/>
<rect x="90" y="0" width="2.5" height="2.5" fill="blue"/>
<rect x="100" y="0" width="2.5" height="2.5" fill="blue"/>
<rect x="115" y="0" width="2.5" height="2.5" fill="blue"/>
<rect x="125" y="0" width="2.5" height="2.5" fill="blue"/>
<rect x="130" y="0" width="2.5" height="2.5" fill="blue"/>
<rect x="135" y="0" width="2.5" height="2.5" fill="blue"/>
<rect x="140" y="0" width="2.5" height="2.5" fill="blue"/>
<rect x="150" y="0" width="2.5" height="2.5" fill="blue"/>
<rect x="155" y="0" width="2.5" height="2.5" fill="blue"/>
<rect x="165" y="0" width="2.5" height="2.5" fill="blue"/>
<rect x="175" y="0" width="2.5" height="2.5" fill="blue"/>
<rect x="185" y="0" width="2.5" height="2.5" fill="blue"/>
<rect x="190" y="0" width="2.5" height="2.5" fill="blue"/>
<rect x="10" y="5" width="2.5" height="2.5" fill="blue"/>
<rect x="15" y="5" width="2.5" height="2.5" fill="blue"/>
<rect x="30" y="5" width="2.5" height="2.5" fill="blue"/>
<rect x="35" y="5" width="2.5" height="2.5" fill="blue"/>
<rect x="40" y="5" width="2.5" height="2.5" fill="blue"/>
<rect x="55" y="5" width="2.5" height="2.5" fill="blue"/>
<rect x="60" y="5" width="2.5" height="2.5" fill="blue"/>
<rect x="65" y="5" width="2.5" height="2.5" fill="blue"/>
<rect x="80" y="5" width="2.5" height="2.5" fill="blue"/>
<rect x="95" y="5" width="2.5" height="2.5" fill="blue"/>
<rect x="105" y="5" width="2.5" height="2.5" fill="blue"/>
<rect x="115" y="5" width="2.5" height="2.5" fill="blue"/>
<rect x="120" y="5" width="2.5" height="2.5" fill="blue"/>
<rect x="130" y="5" width="2.5" height="2.5" fill="blue"/>
<rect x="140" y="5" width="2.5" height="2.5" fill="blue"/>
<rect x="150" y="5" width="2.5" height="2.5" fill="blue"/>
<rect x="170" y="5" width="2.5" height="2.5" fill="blue"/>
<rect x="180" y="5" width="2.5" height="2.5" fill="blue"/>
<rect x="195" y="5" width="2.5" height="2.5" fill="blue"/>
<rect x="15" y="10" width="2.5" height="2.5" fill="blue"/>
<rect x="35" y="10" width="2.5" height="2.5" fill="blue"/>
<rect x="60" y="10" width="2.5" height="2.5" fill="blue"/>
<rect x="65" y="10" width="2.5" height="2.5" fill="blue"/>
<rect x="80" y="10" width="2.5" height="2.5" fill="blue"/>
<rect x="85" y="10" width="2.5" height="2.5" fill="blue"/>
<rect x="90" y="10" width="2.5" height="2.5" fill="blue"/>
<rect x="95" y="10" width="2.5" height="2.5" fill="blue"/>
<rect x="105" y="10" width="2.5" height="2.5" fill="blue"/>
<rect x="110" y="10" width="2.5" height="2.5" fill="blue"/>
<rect x="130" y="10" width="2.5" height="2.5" fill="blue"/>
<rect x="135" y="10" width="2.5" height="2.5" fill="blue"/>
<rect x="150" y="10" width="2.5" height="2.5" fill="blue"/>
<rect x="155" y="10" width="2.5" height="2.5" fill="blue"/>
<rect x="160" y="10" width="2.5" height="2.5" fill="blue"/>
<rect x="180" y="10" width="2.5" height="2.5" fill="blue"/>
<rect x="185" y="10" width="2.5" height="2.5" fill="blue"/>
<rect x="35" y="15" width="2.5" height="2.5" fill="blue"/>
<rect x="40" y="15" width="2.5" height="2.5" fill="blue"/>
<rect x="65" y="15" width="2.5" height="2.5" fill="blue"/>
<rect x="70" y="15" width="2.5" height="2.5" fill="blue"/>
<rect x="85" y="15" width="2.5" height="2.5" fill="blue"/>
<rect x="90" y="15" width="2.5" height="2.5" fill="blue"/>
<rect x="115" y="15" width="2.5" height="2.5" fill="blue"/>
<rect x="135" y="15" width="2.5" height="2.5" fill="blue"/>
<rect x="140" y="15" width="2.5" height="2.5" fill="blue"/>
<rect x="160" y="15" width="2.5" height="2.5" fill="blue"/>
<rect x="165" y="15" width="2.5" height="2.5" fill="blue"/>
<rect x="185" y="15" width="2.5" height="2.5" fill="blue"/>
<rect x="190" y="15" width="2.5" height="2.5" fill="blue"/>
<rect x="25" y="20" width="2.5" height="2.5" fill="blue"/>
<rect x="30" y="20" width="2.5" height="2.5" fill="blue"/>
<rect x="35" y="20" width="2.5" height="2.5" fill="blue"/>
<rect x="40" y="20" width="2.5" height="2.5" fill="blue"/>
<rect x="45" y="20" width="2.5" height="2.5" fill="blue"/>
<rect x="50" y="20" width="2.5" height="2.5" fill="blue"/>
<rect x="55" y="20" width="2.5" height="2.5" fill="blue"/>
<rect x="65" y="20" width="2.5" height="2.5" fill="blue"/>
<rect x="70" y="20" width="2.5" height="2.5" fill="blue"/>
<rect x="80" y="20" width="2.5" height="2.5" fill="blue"/>
<rect x="85" y="20" width="2.5" height="2.5" fill="blue"/>
<rect x="90" y="20" width="2.5" height="2.5" fill="blue"/>
<rect x="95" y="20" width="2.5" height="2.5" fill="blue"/>
<rect x="105" y="20" width="2.5" height="2.5" fill="blue"/>
<rect x="110" y="20" width="2.5" height="2.5" fill="blue"/>
<rect x="115" y="20" width="2.5" height="2.5" fill="blue"/>
<rect x="120" y="20" width="2.5" height="2.5" fill="blue"/>
<rect x="125" y="20" width="2.5" height="2.5" fill="blue"/>
<rect x="130" y="20" width="2.5" height="2.5" fill="blue"/>
<rect x="135" y="20" width="2.5" height="2.5" fill="blue"/>
<rect x="140" y="20" width="2.5" height="2.5" fill="blue"/>
<rect x="150" y="20" width="2.5" height="2.5" fill="blue"/>
<rect x="155" y="20" width="2.5" height="2.5" fill="blue"/>
<rect x="160" y="20" width="2.5" height="2.5" fill="blue"/>
<rect x="165" y="20" width="2.5" height="2.5" fill="blue"/>
<rect x="180" y="20" width="2.5" height="2.5" fill="blue"/>
<rect x="185" y="20" width="2.5" height="2.5" fill="blue"/>
<rect x="190" y="20" width="2.5" height="2.5" fill="blue"/>
<rect x="195" y="20" width="2.5" height="2.5" fill="blue"/>
<rect x="35" y="25" width="2.5" height="2.5" fill="blue"/>
<rect x="40" y="25" width="2.5" height="2.5" fill="blue"/>
<rect x="45" y="25" width="2.5" height="2.5" fill="blue"/>
<rect x="50" y="25" width="2.5" height="2.5" fill="blue"/>
<rect x="60" y="25" width="2.5" height="2.5" fill="blue"/>
<rect x="65" y="25" width="2.5" height="2.5" fill="blue"/>
<rect x="75" y="25" width="2.5" height="2.5" fill="blue"/>
<rect x="90" y="25" width="2.5" height="2.5" fill="blue"/>
<rect x="95" y="25" width="2.5" height="2.5" fill="blue"/>
<rect x="100" y="25" width="2.5" height="2.5" fill="blue"/>
<rect x="110" y="25" width="2.5" height="2.5" fill="blue"/>
<rect x="115" y="25" width="2.5" height="2.5" fill="blue"/>
<rect x="125" y="25" width="2.5" height="2.5" fill="blue"/>
<rect x="130" y="25" width="2.5" height="2.5" fill="blue"/>
<rect x="135" y="25" width="2.5" height="2.5" fill="blue"/>
<rect x="140" y="25" width="2.5" height="2.5" fill="blue"/>
<rect x="150" y="25" width="2.5" height="2.5" fill="blue"/>
<rect x="155" y="25" width="2.5" height="2.5" fill="blue"/>
<rect x="160" y="25" width="2.5" height="2.5" fill="blue"/>
<rect x="165" y="25" width="2.5" height="2.5" fill="blue"/>
<rect x="175" y="25" width="2.5" height="2.5" fill="blue"/>
<rect x="185" y="25" width="2.5" height="2.5" fill="blue"/>
<rect x="190" y="25" width="2.5" height="2.5" fill="blue"/>
<rect x="35" y="30" width="2.5" height="2.5" fill="blue"/>
<rect x="40" y="30" width="2.5" height="2.5" fill="blue"/>
<rect x="45" y="30" width="2.5" height="2.5" fill="blue"/>
<rect x="50" y="30" width="2.5" height="2.5" fill="blue"/>
<rect x="55" y="30" width="2.5" height="2.5" fill="blue"/>
<rect x="60" y="30" width="2.5" height="2.5" fill="blue"/>
<rect x="65" y="30" width="2.5" height="2.5" fill="blue"/>
<rect x="75" y="30" width="2.5" height="2.5" fill="blue"/>
<rect x="80" y="30" width="2.5" height="2.5" fill="blue"/>
<rect x="85" y="30" width="2.5" height="2.5" fill="blue"/>
<rect x="90" y="30" width="2.5" height="2.5" fill="blue"/>
<rect x="95" y="30" width="2.5" height="2.5" fill="blue"/>
<rect x="100" y="30" width="2.5" height="2.5" fill="blue"/>
<rect x="105" y="30" width="2.5" height="2.5" fill="blue"/>
<rect x="115" y="30" width="2.5" height="2.5" fill="blue"/>
<rect x="120" y="30" width="2.5" height="2.5" fill="blue"/>
<rect x="125" y="30" width="2.5" height="2.5" fill="blue"/>
<rect x="130" y="30" width="2.5" height="2.5" fill="blue"/>
<rect x="135" y="30" width="2.5" height="2.5" fill="blue"/>
<rect x="140" y="30" width="2.5" height="2.5" fill="blue"/>
<rect x="150" y="30" width="2.5" height="2.5" fill="blue"/>
<rect x="160" y="30" width="2.5" height="2.5" fill="blue"/>
<rect x="170" y="30" width="2.5" height="2.5" fill="blue"/>
<rect x="175" y="30" width="2.5" height="2.5" fill="blue"/>
<rect x="190" y="30" width="2.5" height="2.5" fill="blue"/>
<rect x="195" y="30" width="2.5" height="2.5" fill="blue"/>
<rect x="40" y="35" width="2.5" height="2.5" fill="blue"/>
<rect x="60" y="35" width="2.5" height="2.5" fill="blue"/>
<rect x="65" y="35" width="2.5" height="2.5" fill="blue"/>
<rect x="80" y="35" width="2.5" height="2.5" fill="blue"/>
<rect x="85" y="35" width="2.5" height="2.5" fill="blue"/>
<rect x="105" y="35" width="2.5" height="2.5" fill="blue"/>
<rect x="110" y="35" width="2.5" height="2.5" fill="blue"/>
<rect x="130" y="35" width="2.5" height="2.5" fill="blue"/>
<rect x="155" y="35" width="2.5" height="2.5" fill="blue"/>
<rect x="160" y="35" width="2.5" height="2.5" fill="blue"/>
<rect x="180" y="35" width="2.5" height="2.5" fill="blue"/>
<rect x="185" y="35" width="2.5" height="2.5" fill="blue"/>
<rect x="65" y="40" width="2.5" height="2.5" fill="blue"/>
<rect x="70" y="40" width="2.5" height="2.5" fill="blue"/>
<rect x="85" y="40" width="2.5" height="2.5" fill="blue"/>
<rect x="90" y="40" width="2.5" height="2.5" fill="blue"/>
<rect x="110" y="40" width="2.5" height="2.5" fill="blue"/>
<rect x="115" y="40" width="2.5" height="2.5" fill="blue"/>
<rect x="135" y="40" width="2.5" height="2.5" fill="blue"/>
<rect x="140" y="40" width="2.5" height="2.5" fill="blue"/>
<rect x="160" y="40" width="2.5" height="2.5" fill="blue"/>
<rect x="165" y="40" width="2.5" height="2.5" fill="blue"/>
<rect x="185" y="40" width="2.5" height="2.5" fill="blue"/>
<rect x="190" y="40" width="2.5" height="2.5" fill="blue"/>
<rect x="55" y="45" width="2.5" height="2.5" fill="blue"/>
<rect x="65" y="45" width="2.5" height="2.5" fill="blue"/>
<rect x="70" y="45" width="2.5" height="2.5" fill="blue"/>
<rect x="90" y="45" width="2.5" height="2.5" fill="blue"/>
<rect x="100" y="45" width="2.5" height="2.5" fill="blue"/>
<rect x="105" y="45" width="2.5" height="2.5" fill="blue"/>
<rect x="110" y="45" width="2.5" height="2.5" fill="blue"/>
<rect x="115" y="45" width="2.5" height="2.5" fill="blue"/>
<rect x="125" y="45" width="2.5" height="2.5" fill="blue"/>
<rect x="135" y="45" width="2.5" height="2.5" fill="blue"/>
<rect x="140" y="45" width="2.5" height="2.5" fill="blue"/>
<rect x="150" y="45" width="2.5" height="2.5" fill="blue"/>
<rect x="155" y="45" width="2.5" height="2.5" fill="blue"/>
<rect x="160" y="45" width="2.5" height="2.5" fill="blue"/>
<rect x="165" y="45" width="2.5" height="2.5" fill="blue"/>
<rect x="185" y="45" width="2.5" height="2.5" fill="blue"/>
<rect x="190" y="45" width="2.5" height="2.5" fill="blue"/>
<rect x="55" y="50" width="2.5" height="2.5" fill="blue"/>
<rect x="60" y="50" width="2.5" height="2.5" fill="blue"/>
<rect x="65" y="50" width="2.5" height="2.5" fill="blue"/>
<rect x="70" y="50" width="2.5" height="2.5" fill="blue"/>
<rect x="75" y="50" width="2.5" height="2.5" fill="blue"/>
<rect x="80" y="50" width="2.5" height="2.5" fill="blue"/>
<rect x="100" y="50" width="2.5" height="2.5" fill="blue"/>
<rect x="105" y="50" width="2.5" height="2.5" fill="blue"/>
<rect x="115" y="50" width="2.5" height="2.5" fill="blue"/>
<rect x="125" y="50" width="2.5" height="2.5" fill="blue"/>
<rect x="150" y="50" width="2.5" height="2.5" fill="blue"/>
<rect x="155" y="50" width="2.5" height="2.5" fill="blue"/>
<rect x="175" y="50" width="2.5" height="2.5" fill="blue"/>
<rect x="180" y="50" width="2.5" height="2.5" fill="blue"/>
<rect x="60" y="55" width="2.5" height="2.5" fill="blue"/>
<rect x="65" y="55" width="2.5" height="2.5" fill="blue"/>
<rect x="70" y="55" width="2.5" height="2.5" fill="blue"/>
<rect x="80" y="55" width="2.5" height="2.5" fill="blue"/>
<rect x="85" y="55" width="2.5" height="2.5" fill="blue"/>
<rect x="90" y="55" width="2.5" height="2.5" fill="blue"/>
<rect x="95" y="55" width="2.5" height="2.5" fill="blue"/>
<rect x="110" y="55" width="2.5" height="2.5" fill="blue"/>
<rect x="115" y="55" width="2.5" height="2.5" fill="blue"/>
<rect x="120" y="55" width="2.5" height="2.5" fill="blue"/>
<rect x="135" y="55" width="2.5" height="2.5" fill="blue"/>
<rect x="140" y="55" width="2.5" height="2.5" fill="blue"/>
<rect x="155" y="55" width="2.5" height="2.5" fill="blue"/>
<rect x="160" y="55" width="2.5" height="2.5" fill="blue"/>
<rect x="165" y="55" width="2.5" height="2.5" fill="blue"/>
<rect x="180" y="55" width="2.5" height="2.5" fill="blue"/>
<rect x="185" y="55" width="2.5" height="2.5" fill="blue"/>
<rect x="190" y="55" width="2.5" height="2.5" fill="blue"/>
<rect x="195" y="55" width="2.5" height="2.5" fill="blue"/>
<rect x="65" y="60" width="2.5" height="2.5" fill="blue"/>
<rect x="70" y="60" width="2.5" height="2.5" fill="blue"/>
<rect x="75" y="60" width="2.5" height="2.5" fill="blue"/>
<rect x="80" y="60" width="2.5" height="2.5" fill="blue"/>
<rect x="85" y="60" width="2.5" height="2.5" fill="blue"/>
<rect x="100" y="60" width="2.5" height="2.5" fill="blue"/>
<rect x="105" y="60" width="2.5" height="2.5" fill="blue"/>
<rect x="110" y="60" width="2.5" height="2.5" fill="blue"/>
<rect x="125" y="60" width="2.5" height="2.5" fill="blue"/>
<rect x="130" y="60" width="2.5" height="2.5" fill="blue"/>
<rect x="135" y="60" width="2.5" height="2.5" fill="blue"/>
<rect x="150" y="60" width="2.5" height="2.5" fill="blue"/>
<rect x="155" y="60" width="2.5" height="2.5" fill="blue"/>
<rect x="175" y="60" width="2.5" height="2.5" fill="blue"/>
<rect x="180" y="60" width="2.5" height="2.5" fill="blue"/>
<rect x="185" y="60" width="2.5" height="2.5" fill="blue"/>
<rect x="70" y="65" width="2.5" height="2.5" fill="blue"/>
<rect x="85" y="65" width="2.5" height="2.5" fill="blue"/>
<rect x="90" y="65" width="2.5" height="2.5" fill="blue"/>
<rect x="110" y="65" width="2.5" height="2.5" fill="blue"/>
<rect x="135" y="65" width="2.5" height="2.5" fill="blue"/>
<rect x="160" y="65" width="2.5" height="2.5" fill="blue"/>
<rect x="185" y="65" width="2.5" height="2.5" fill="blue"/>
<rect x="190" y="65" width="2.5" height="2.5" fill="blue"/>
<rect x="105" y="70" width="2.5" height="2.5" fill="blue"/>
<rect x="110" y="70" width="2.5" height="2.5" fill="blue"/>
<rect x="115" y="70" width="2.5" height="2.5" fill="blue"/>
<rect x="140" y="70" width="2.5" height="2.5" fill="blue"/>
<rect x="165" y="70" width="2.5" height="2.5" fill="blue"/>
<rect x="190" y="70" width="2.5" height="2.5" fill="blue"/>
<rect x="80" y="75" width="2.5" height="2.5" fill="blue"/>
<rect x="85" y="75" width="2.5" height="2.5" fill="blue"/>
<rect x="90" y="75" width="2.5" height="2.5" fill="blue"/>
<rect x="95" y="75" width="2.5" height="2.5" fill="blue"/>
<rect x="100" y="75" width="2.5" height="2.5" fill="blue"/>
<rect x="115" y="75" width="2.5" height="2.5" fill="blue"/>
<rect x="125" y="75" width="2.5" height="2.5" fill="blue"/>
<rect x="140" y="75" width="2.5" height="2.5" fill="blue"/>
<rect x="150" y="75" width="2.5" height="2.5" fill="blue"/>
<rect x="165" y="75" width="2.5" height="2.5" fill="blue"/>
<rect x="170" y="75" width="2.5" height="2.5" fill="blue"/>
<rect x="175" y="75" width="2.5" height="2.5" fill="blue"/>
<rect x="185" y="75" width="2.5" height="2.5" fill="blue"/>
<rect x="190" y="75" width="2.5" height="2.5" fill="blue"/>
<rect x="85" y="80" width="2.5" height="2.5" fill="blue"/>
<rect x="90" y="80" width="2.5" height="2.5" fill="blue"/>
<rect x="100" y="80" width="2.5" height="2.5" fill="blue"/>
<rect x="105" y="80" width="2.5" height="2.5" fill="blue"/>
<rect x="110" y="80" width="2.5" height="2.5" fill="blue"/>
<rect x="120" y="80" width="2.5" height="2.5" fill="blue"/>
<rect x="125" y="80" width="2.5" height="2.5" fill="blue"/>
<rect x="130" y="80" width="2.5" height="2.5" fill="blue"/>
<rect x="135" y="80" width="2.5" height="2.5" fill="blue"/>
<rect x="145" y="80" width="2.5" height="2.5" fill="blue"/>
<rect x="150" y="80" width="2.5" height="2.5" fill="blue"/>
<rect x="155" y="80" width="2.5" height="2.5" fill="blue"/>
<rect x="160" y="80" width="2.5" height="2.5" fill="blue"/>
<rect x="165" y="80" width="2.5" height="2.5" fill="blue"/>
<rect x="170" y="80" width="2.5" height="2.5" fill="blue"/>
<rect x="175" y="80" width="2.5" height="2.5" fill="blue"/>
<rect x="180" y="80" width="2.5" height="2.5" fill="blue"/>
<rect x="185" y="80" width="2.5" height="2.5" fill="blue"/>
<rect x="195" y="80" width="2.5" height="2.5" fill="blue"/>
<rect x="90" y="85" width="2.5" height="2.5" fill="blue"/>
<rect x="110" y="85" width="2.5" height="2.5" fill="blue"/>
<rect x="115" y="85" width="2.5" height="2.5" fill="blue"/>
<rect x="135" y="85" width="2.5" height="2.5" fill="blue"/>
<rect x="150" y="85" width="2.5" height="2.5" fill="blue"/>
<rect x="160" y="85" width="2.5" height="2.5" fill="blue"/>
<rect x="180" y="85" width="2.5" height="2.5" fill="blue"/>
<rect x="185" y="85" width="2.5" height="2.5" fill="blue"/>
<rect x="110" y="90" width="2.5" height="2.5" fill="blue"/>
<rect x="115" y="90" width="2.5" height="2.5" fill="blue"/>
<rect x="135" y="90" width="2.5" height="2.5" fill="blue"/>
<rect x="140" y="90" width="2.5" height="2.5" fill="blue"/>
<rect x="160" y="90" width="2.5" height="2.5" fill="blue"/>
<rect x="165" y="90" width="2.5" height="2.5" fill="blue"/>
<rect x="175" y="90" width="2.5" height="2.5" fill="blue"/>
<rect x="185" y="90" width="2.5" height="2.5" fill="blue"/>
<rect x="190" y="90" width="2.5" height="2.5" fill="blue"/>
<rect x="105" y="95" width="2.5" height="2.5" fill="blue"/>
<rect x="110" y="95" width="2.5" height="2.5" fill="blue"/>
<rect x="115" y="95" width="2.5" height="2.5" fill="blue"/>
<rect x="120" y="95" width="2.5" height="2.5" fill="blue"/>
<rect x="130" y="95" width="2.5" height="2.5" fill="blue"/>
<rect x="135" y="95" width="2.5" height="2.5" fill="blue"/>
<rect x="140" y="95" width="2.5" height="2.5" fill="blue"/>
<rect x="160" y="95" width="2.5" height="2.5" fill="blue"/>
<rect x="165" y="95" width="2.5" height="2.5" fill="blue"/>
<rect x="170" y="95" width="2.5" height="2.5" fill="blue"/>
<rect x="185" y="95" width="2.5" height="2.5" fill="blue"/>
<rect x="190" y="95" width="2.5" height="2.5" fill="blue"/>
<rect x="195" y="95" width="2.5" height="2.5" fill="blue"/>
<rect x="105" y="100" width="2.5" height="2.5" fill="blue"/>
<rect x="110" y="100" width="2.5" height="2.5" fill="blue"/>
<rect x="115" y="100" width="2.5" height="2.5" fill="blue"/>
<rect x="125" y="100" width="2.5" height="2.5" fill="blue"/>
<rect x="135" y="100" width="2.5" height="2.5" fill="blue"/>
<rect x="140" y="100" width="2.5" height="2.5" fill="blue"/>
<rect x="150" y="100" width="2.5" height="2.5" fill="blue"/>
<rect x="165" y="100" width="2.5" height="2.5" fill="blue"/>
<rect x="175" y="100" width="2.5" height="2.5" fill="blue"/>
<rect x="180" y="100" width="2.5" height="2.5" fill="blue"/>
<rect x="110" y="105" width="2.5" height="2.5" fill="blue"/>
<rect x="115" y="105" width="2.5" height="2.5" fill="blue"/>
<rect x="120" y="105" width="2.5" height="2.5" fill="blue"/>
<rect x="125" y="105" width="2.5" height="2.5" fill="blue"/>
<rect x="130" y="105" width="2.5" height="2.5" fill="blue"/>
<rect x="140" y="105" width="2.5" height="2.5" fill="blue"/>
<rect x="145" y="105" width="2.5" height="2.5" fill="blue"/>
<rect x="150" y="105" width="2.5" height="2.5" fill="blue"/>
<rect x="155" y="105" width="2.5" height="2.5" fill="blue"/>
<rect x="160" y="105" width="2.5" height="2.5" fill="blue"/>
<rect x="170" y="105" width="2.5" height="2.5" fill="blue"/>
<rect x="175" y="105" width="2.5" height="2.5" fill="blue"/>
<rect x="180" y="105" width="2.5" height="2.5" fill="blue"/>
<rect x="190" y="105" width="2.5" height="2.5" fill="blue"/>
<rect x="115" y="110" width="2.5" height="2.5" fill="blue"/>
<rect x="130" y="110" width="2.5" height="2.5" fill="blue"/>
<rect x="135" y="110" width="2.5" height="2.5" fill="blue"/>
<rect x="140" y="110" width="2.5" height="2.5" fill="blue"/>
<rect x="150" y="110" width="2.5" height="2.5" fill="blue"/>
<rect x="155" y="110" width="2.5" height="2.5" fill="blue"/>
<rect x="160" y="110" width="2.5" height="2.5" fill="blue"/>
<rect x="180" y="110" width="2.5" height="2.5" fill="blue"/>
<rect x="185" y="110" width="2.5" height="2.5" fill="blue"/>
<rect x="120" y="115" width="2.5" height="2.5" fill="blue"/>
<rect x="125" y="115" width="2.5" height="2.5" fill="blue"/>
<rect x="135" y="115" width="2.5" height="2.5" fill="blue"/>
<rect x="140" y="115" width="2.5" height="2.5" fill="blue"/>
<rect x="150" y="115" width="2.5" height="2.5" fill="blue"/>
<rect x="160" y="115" width="2.5" height="2.5" fill="blue"/>
<rect x="165" y="115" width="2.5" height="2.5" fill="blue"/>
<rect x="175" y="115" width="2.5" height="2.5" fill="blue"/>
<rect x="185" y="115" width="2.5" height="2.5" fill="blue"/>
<rect x="190" y="115" width="2.5" height="2.5" fill="blue"/>
<rect x="195" y="115" width="2.5" height="2.5" fill="blue"/>
<rect x="140" y="120" width="2.5" height="2.5" fill="blue"/>
<rect x="145" y="120" width="2.5" height="2.5" fill="blue"/>
<rect x="170" y="120" width="2.5" height="2.5" fill="blue"/>
<rect x="180" y="120" width="2.5" height="2.5" fill="blue"/>
<rect x="185" y="120" width="2.5" height="2.5" fill="blue"/>
<rect x="195" y="120" width="2.5" height="2.5" fill="blue"/>
<rect x="130" y="125" width="2.5" height="2.5" fill="blue"/>
<rect x="135" y="125" width="2.5" height="2.5" fill="blue"/>
<rect x="140" y="125" width="2.5" height="2.5" fill="blue"/>
<rect x="150" y="125" width="2.5" height="2.5" fill="blue"/>
<rect x="155" y="125" width="2.5" height="2.5" fill="blue"/>
<rect x="160" y="125" width="2.5" height="2.5" fill="blue"/>
<rect x="170" y="125" width="2.5" height="2.5" fill="blue"/>
<rect x="175" y="125" width="2.5" height="2.5" fill="blue"/>
<rect x="135" y="130" width="2.5" height="2.5" fill="blue"/>
<rect x="155" y="130" width="2.5" height="2.5" fill="blue"/>
<rect x="180" y="130" width="2.5" height="2.5" fill="blue"/>
<rect x="185" y="130" width="2.5" height="2.5" fill="blue"/>
<rect x="190" y="130" width="2.5" height="2.5" fill="blue"/>
<rect x="140" y="135" width="2.5" height="2.5" fill="blue"/>
<rect x="150" y="135" width="2.5" height="2.5" fill="blue"/>
<rect x="155" y="135" width="2.5" height="2.5" fill="blue"/>
<rect x="160" y="135" width="2.5" height="2.5" fill="blue"/>
<rect x="185" y="135" width="2.5" height="2.5" fill="blue"/>
<rect x="150" y="140" width="2.5" height="2.5" fill="blue"/>
<rect x="165" y="140" width="2.5" height="2.5" fill="blue"/>
<rect x="170" y="140" width="2.5" height="2.5" fill="blue"/>
<rect x="175" y="140" width="2.5" height="2.5" fill="blue"/>
<rect x="190" y="140" width="2.5" height="2.5" fill="blue"/>
<rect x="195" y="140" width="2.5" height="2.5" fill="blue"/>
<rect x="150" y="145" width="2.5" height="2.5" fill="blue"/>
<rect x="155" y="145" width="2.5" height="2.5" fill="blue"/>
<rect x="160" y="145" width="2.5" height="2.5" fill="blue"/>
<rect x="170" y="145" width="2.5" height="2.5" fill="blue"/>
<rect x="180" y="145" width="2.5" height="2.5" fill="blue"/>
<rect x="185" y="145" width="2.5" height="2.5" fill="blue"/>
<rect x="155" y="150" width="2.5" height="2.5" fill="blue"/>
<rect x="160" y="150" width="2.5" height="2.5" fill="blue"/>
<rect x="165" y="150" width="2.5" height="2.5" fill="blue"/>
<rect x="175" y="150" width="2.5" height="2.5" fill="blue"/>
<rect x="180" y="150" width="2.5" height="2.5" fill="blue"/>
<rect x="185" y="150" width="2.5" height="2.5" fill="blue"/>
<rect x="160" y="155" width="2.5" height="2.5" fill="blue"/>
<rect x="165" y="155" width="2.5" height="2.5" fill="blue"/>
<rect x="180" y="155" width="2.5" height="2.5" fill="blue"/>
<rect x="190" y="155" width="2.5" height="2.5" fill="blue"/>
<rect x="165" y="160" width="2.5" height="2.5" fill="blue"/>
<rect x="180" y="160" width="2.5" height="2.5" fill="blue"/>
<rect x="185" y="160" width="2.5" height="2.5" fill="blue"/>
<rect x="170" y="165" width="2.5" height="2.5" fill="blue"/>
<rect x="175" y="165" width="2.5" height="2.5" fill="blue"/>
<rect x="185" y="165" width="2.5" height="2.5" fill="blue"/>
<rect x="190" y="165" width="2.5" height="2.5" fill="blue"/>
<rect x="180" y="170" width="2.5" height="2.5" fill="blue"/>
<rect x="195" y="170" width="2.5" height="2.5" fill="blue"/>
<rect x="180" y="175" width="2.5" height="2.5" fill="blue"/>
<rect x="185" y="175" width="2.5" height="2.5" fill="blue"/>
<rect x="190" y="175" width="2.5" height="2.5" fill="blue"/>
<rect x="185" y="180" width="2.5" height="2.5" fill="blue"/>
<rect x="190" y="180" width="2.5" height="2.5" fill="blue"/>
<rect x="190" y="185" width="2.5" height="2.5" fill="blue"/>
<text x="205" y="5" font-size="5" fill="black">0</text>
<text x="205" y="195" font-size="5" fill="black">40</text>
<polyline points="205,10,205,190" stroke="black" stroke-width="1" fill="none"/>
<text x="5" y="205" font-size="5" fill="black">0</text>
<text x="195" y="205" font-size="5" fill="black">40</text>
<polyline points="10,205,190,205" stroke="black" stroke-width="1" fill="none"/>
</svg>